<svg xmlns="http://www.w3.org/2000/svg" viewBox="0 0 512 512" role="img" aria-label="ProofOfAIWork">
  <rect width="512" height="512" fill="#000"/>
  <g fill="none" stroke="#fff" stroke-linecap="round" stroke-linejoin="round">
    <path
      d="M82 229c0-54 43-85 102-85 48 0 80 21 99 66 19-45 51-66 99-66 59 0 102 31 102 85s-43 85-102 85c-51 0-86-23-99-68-13 45-48 68-99 68-59 0-102-31-102-85Z"
      stroke-width="18"
    />
    <path
      d="M116 218c12-40 42-58 77-58 47 0 76 20 87 67m169-9c-12-40-42-58-77-58-47 0-76 20-87 67"
      stroke-width="12"
    />
    <path d="M84 229h118l14 36-128 11" stroke-width="14" />
    <path d="M483 229H365l-14 36 128 11" stroke-width="14" />
    <path d="M207 226c30 2 56 4 73 6" stroke-width="10" />
    <path d="M360 226c-30 2-56 4-73 6" stroke-width="10" />
    <path d="M184 352c54-6 174-6 236 10" stroke-width="24" />
    <path d="M184 352c54-6 174-6 236 10" stroke="#000" stroke-width="9" />
  </g>
</svg>
